<svg width="25" height="25" viewBox="0 0 25 25" fill="none" xmlns="http://www.w3.org/2000/svg">
<path fill-rule="evenodd" clip-rule="evenodd" d="M3.125 19.5312C3.125 19.0998 3.47478 18.75 3.90625 18.75H21.0938C21.5252 18.75 21.875 19.0998 21.875 19.5312C21.875 19.9627 21.5252 20.3125 21.0938 20.3125H3.90625C3.47478 20.3125 3.125 19.9627 3.125 19.5312Z" fill="#2C2C2C"/>
<path fill-rule="evenodd" clip-rule="evenodd" d="M3.125 14.8438C3.125 14.4123 3.47478 14.0625 3.90625 14.0625H21.0938C21.5252 14.0625 21.875 14.4123 21.875 14.8438C21.875 15.2752 21.5252 15.625 21.0938 15.625H3.90625C3.47478 15.625 3.125 15.2752 3.125 14.8438Z" fill="#2C2C2C"/>
<path fill-rule="evenodd" clip-rule="evenodd" d="M3.125 10.1562C3.125 9.72478 3.47478 9.375 3.90625 9.375H21.0938C21.5252 9.375 21.875 9.72478 21.875 10.1562C21.875 10.5877 21.5252 10.9375 21.0938 10.9375H3.90625C3.47478 10.9375 3.125 10.5877 3.125 10.1562Z" fill="#2C2C2C"/>
<path fill-rule="evenodd" clip-rule="evenodd" d="M3.125 5.46875C3.125 5.03728 3.47478 4.6875 3.90625 4.6875H21.0938C21.5252 4.6875 21.875 5.03728 21.875 5.46875C21.875 5.90022 21.5252 6.25 21.0938 6.25H3.90625C3.47478 6.25 3.125 5.90022 3.125 5.46875Z" fill="#2C2C2C"/>
</svg>
