<svg width="30" height="30" viewBox="0 0 30 30" fill="none" xmlns="http://www.w3.org/2000/svg">
<path d="M26.25 1.875C27.2855 1.875 28.125 2.71447 28.125 3.75V26.25C28.125 27.2855 27.2855 28.125 26.25 28.125H3.75C2.71447 28.125 1.875 27.2855 1.875 26.25V3.75C1.875 2.71447 2.71447 1.875 3.75 1.875H26.25ZM3.75 0C1.67893 0 0 1.67893 0 3.75V26.25C0 28.3211 1.67893 30 3.75 30H26.25C28.3211 30 30 28.3211 30 26.25V3.75C30 1.67893 28.3211 0 26.25 0H3.75Z" fill="#438CCB"/>
<path d="M8.71209 8.71209C9.0782 8.34597 9.6718 8.34597 10.0379 8.71209L15 13.6742L19.9621 8.71209C20.3282 8.34597 20.9218 8.34597 21.2879 8.71209C21.654 9.0782 21.654 9.6718 21.2879 10.0379L16.3258 15L21.2879 19.9621C21.654 20.3282 21.654 20.9218 21.2879 21.2879C20.9218 21.654 20.3282 21.654 19.9621 21.2879L15 16.3258L10.0379 21.2879C9.6718 21.654 9.0782 21.654 8.71209 21.2879C8.34597 20.9218 8.34597 20.3282 8.71209 19.9621L13.6742 15L8.71209 10.0379C8.34597 9.6718 8.34597 9.0782 8.71209 8.71209Z" fill="#438CCB"/>
</svg>
